<mxfile host="app.diagrams.net" agent="Mozilla/5.0 (Windows NT 10.0; Win64; x64) AppleWebKit/537.36 (KHTML, like Gecko) Chrome/133.0.0.0 Safari/537.36 Edg/133.0.0.0" version="26.1.0">
  <diagram name="Trang-1" id="he3B7mpo1pXopTgGeJk5">
    <mxGraphModel grid="1" page="1" gridSize="10" guides="1" tooltips="1" connect="1" arrows="1" fold="1" pageScale="1" pageWidth="827" pageHeight="1169" math="0" shadow="0">
      <root>
        <mxCell id="0" />
        <mxCell id="1" parent="0" />
        <mxCell id="A02tiETPDeTTc0S0ual6-17" value="" style="edgeStyle=orthogonalEdgeStyle;rounded=0;orthogonalLoop=1;jettySize=auto;html=1;" edge="1" parent="1" source="A02tiETPDeTTc0S0ual6-1" target="A02tiETPDeTTc0S0ual6-6">
          <mxGeometry relative="1" as="geometry" />
        </mxCell>
        <mxCell id="A02tiETPDeTTc0S0ual6-1" value="Begin" style="ellipse;whiteSpace=wrap;html=1;" vertex="1" parent="1">
          <mxGeometry x="295" y="30" width="170" height="80" as="geometry" />
        </mxCell>
        <mxCell id="A02tiETPDeTTc0S0ual6-16" value="" style="edgeStyle=orthogonalEdgeStyle;rounded=0;orthogonalLoop=1;jettySize=auto;html=1;" edge="1" parent="1" source="A02tiETPDeTTc0S0ual6-2" target="A02tiETPDeTTc0S0ual6-6">
          <mxGeometry relative="1" as="geometry" />
        </mxCell>
        <mxCell id="A02tiETPDeTTc0S0ual6-2" value="Input N ngẫu nhiên 0-9" style="shape=parallelogram;perimeter=parallelogramPerimeter;whiteSpace=wrap;html=1;fixedSize=1;" vertex="1" parent="1">
          <mxGeometry x="295" y="130" width="170" height="40" as="geometry" />
        </mxCell>
        <mxCell id="A02tiETPDeTTc0S0ual6-18" style="edgeStyle=orthogonalEdgeStyle;rounded=0;orthogonalLoop=1;jettySize=auto;html=1;exitX=0;exitY=0.5;exitDx=0;exitDy=0;entryX=0.5;entryY=0;entryDx=0;entryDy=0;" edge="1" parent="1" source="A02tiETPDeTTc0S0ual6-4" target="A02tiETPDeTTc0S0ual6-7">
          <mxGeometry relative="1" as="geometry" />
        </mxCell>
        <mxCell id="A02tiETPDeTTc0S0ual6-19" style="edgeStyle=orthogonalEdgeStyle;rounded=0;orthogonalLoop=1;jettySize=auto;html=1;" edge="1" parent="1" source="A02tiETPDeTTc0S0ual6-4">
          <mxGeometry relative="1" as="geometry">
            <mxPoint x="520" y="320" as="targetPoint" />
          </mxGeometry>
        </mxCell>
        <mxCell id="A02tiETPDeTTc0S0ual6-4" value="N==M" style="rhombus;whiteSpace=wrap;html=1;" vertex="1" parent="1">
          <mxGeometry x="295" y="250" width="160" height="40" as="geometry" />
        </mxCell>
        <mxCell id="A02tiETPDeTTc0S0ual6-15" value="" style="edgeStyle=orthogonalEdgeStyle;rounded=0;orthogonalLoop=1;jettySize=auto;html=1;" edge="1" parent="1" source="A02tiETPDeTTc0S0ual6-6" target="A02tiETPDeTTc0S0ual6-4">
          <mxGeometry relative="1" as="geometry" />
        </mxCell>
        <mxCell id="A02tiETPDeTTc0S0ual6-6" value="Input M" style="shape=parallelogram;perimeter=parallelogramPerimeter;whiteSpace=wrap;html=1;fixedSize=1;" vertex="1" parent="1">
          <mxGeometry x="290" y="190" width="170" height="40" as="geometry" />
        </mxCell>
        <mxCell id="A02tiETPDeTTc0S0ual6-10" style="edgeStyle=orthogonalEdgeStyle;rounded=0;orthogonalLoop=1;jettySize=auto;html=1;entryX=0.5;entryY=0;entryDx=0;entryDy=0;" edge="1" parent="1" source="A02tiETPDeTTc0S0ual6-7" target="A02tiETPDeTTc0S0ual6-9">
          <mxGeometry relative="1" as="geometry" />
        </mxCell>
        <mxCell id="A02tiETPDeTTc0S0ual6-20" style="edgeStyle=orthogonalEdgeStyle;rounded=0;orthogonalLoop=1;jettySize=auto;html=1;exitX=0.5;exitY=0;exitDx=0;exitDy=0;" edge="1" parent="1" source="A02tiETPDeTTc0S0ual6-7">
          <mxGeometry relative="1" as="geometry">
            <mxPoint x="245" y="320" as="targetPoint" />
          </mxGeometry>
        </mxCell>
        <mxCell id="A02tiETPDeTTc0S0ual6-21" style="edgeStyle=orthogonalEdgeStyle;rounded=0;orthogonalLoop=1;jettySize=auto;html=1;exitX=0.5;exitY=0;exitDx=0;exitDy=0;" edge="1" parent="1" source="A02tiETPDeTTc0S0ual6-7">
          <mxGeometry relative="1" as="geometry">
            <mxPoint x="245" y="320" as="targetPoint" />
          </mxGeometry>
        </mxCell>
        <mxCell id="A02tiETPDeTTc0S0ual6-7" value="OUTPUT: &quot;ĐÚNG&quot;" style="shape=parallelogram;perimeter=parallelogramPerimeter;whiteSpace=wrap;html=1;fixedSize=1;" vertex="1" parent="1">
          <mxGeometry x="160" y="320" width="170" height="50" as="geometry" />
        </mxCell>
        <mxCell id="A02tiETPDeTTc0S0ual6-11" style="edgeStyle=orthogonalEdgeStyle;rounded=0;orthogonalLoop=1;jettySize=auto;html=1;entryX=0.5;entryY=0;entryDx=0;entryDy=0;" edge="1" parent="1" source="A02tiETPDeTTc0S0ual6-8" target="A02tiETPDeTTc0S0ual6-9">
          <mxGeometry relative="1" as="geometry" />
        </mxCell>
        <mxCell id="A02tiETPDeTTc0S0ual6-8" value="OUTPUT:&quot;SAI&quot;" style="shape=parallelogram;perimeter=parallelogramPerimeter;whiteSpace=wrap;html=1;fixedSize=1;" vertex="1" parent="1">
          <mxGeometry x="430" y="320" width="170" height="50" as="geometry" />
        </mxCell>
        <mxCell id="A02tiETPDeTTc0S0ual6-9" value="END" style="ellipse;whiteSpace=wrap;html=1;" vertex="1" parent="1">
          <mxGeometry x="295" y="410" width="160" height="60" as="geometry" />
        </mxCell>
        <mxCell id="A02tiETPDeTTc0S0ual6-22" value="YES" style="text;html=1;align=center;verticalAlign=middle;whiteSpace=wrap;rounded=0;" vertex="1" parent="1">
          <mxGeometry x="235" y="240" width="60" height="30" as="geometry" />
        </mxCell>
        <mxCell id="A02tiETPDeTTc0S0ual6-23" value="NO" style="text;html=1;align=center;verticalAlign=middle;whiteSpace=wrap;rounded=0;" vertex="1" parent="1">
          <mxGeometry x="470" y="240" width="60" height="30" as="geometry" />
        </mxCell>
      </root>
    </mxGraphModel>
  </diagram>
</mxfile>
